<svg width="1440" height="604" viewBox="0 0 1440 604" fill="none" xmlns="http://www.w3.org/2000/svg">
<mask id="mask0_265_20" style="mask-type:alpha" maskUnits="userSpaceOnUse" x="0" y="0" width="1440" height="604">
<rect width="1440" height="604" fill="#D9D9D9"/>
</mask>
<g mask="url(#mask0_265_20)">
<path d="M1457 497C1447.8 372.85 1355.59 156.188 1060.31 282.741C691.2 440.932 444.337 395.878 385.832 295.757C327.327 195.635 394.394 87.004 511.88 121.546C629.366 156.088 651.246 419.406 385.832 446.439C173.501 468.065 2.13942 318.618 -57 241.191" stroke="white" stroke-width="26"/>
<circle cx="1226" cy="241" r="43" fill="white"/>
<path d="M1243.65 230.051L1239.35 222.343C1238.98 221.679 1238.37 221.281 1237.72 221.281H1229.13V220.46C1229.13 219.101 1228.24 218 1227.14 218C1226.05 218 1225.16 219.102 1225.16 220.46V221.281H1212.28C1211.18 221.281 1210.29 222.385 1210.29 223.742V238.721C1210.29 240.079 1211.18 241.182 1212.28 241.182H1225.16V256.158H1219.62C1218.52 256.158 1217.64 257.262 1217.64 258.62C1217.64 259.98 1218.53 261.081 1219.62 261.081H1234.67C1235.77 261.081 1236.65 259.98 1236.65 258.62C1236.65 257.26 1235.77 256.158 1234.67 256.158H1229.13V241.183H1237.72C1238.35 241.183 1238.94 240.809 1239.32 240.179L1243.61 232.908C1244.12 232.062 1244.13 230.915 1243.65 230.051Z" fill="#242A38"/>
<circle cx="374" cy="261" r="43" fill="white"/>
<path d="M374 241C366.821 241 361 248.083 361 256.818C361 260.258 361.927 263.414 363.467 265.999C363.495 266.061 363.499 266.131 363.531 266.19L372.197 282.008C372.599 282.742 373.276 283.182 374 283.182C374.724 283.182 375.401 282.742 375.803 282.008L384.469 266.19C384.501 266.131 384.505 266.061 384.533 265.999C386.073 263.414 387 260.258 387 256.818C387 248.083 381.179 241 374 241ZM374 262.091C371.607 262.091 369.667 259.73 369.667 256.818C369.667 253.906 371.607 251.545 374 251.545C376.393 251.545 378.333 253.906 378.333 256.818C378.333 259.73 376.393 262.091 374 262.091Z" fill="#242A38"/>
</g>
</svg>
